<mxfile host="app.diagrams.net" modified="2022-03-13T07:58:32.846Z" agent="5.0 (Windows NT 10.0; Win64; x64) AppleWebKit/537.36 (KHTML, like Gecko) Chrome/99.0.4844.51 Safari/537.36 Edg/99.0.1150.39" etag="2DmD8qoTnvAOm1raKtZ5" version="17.1.2" type="github">
  <diagram id="vppQzGNSH-4t_KWCzN--" name="Page-1">
    <mxGraphModel dx="766" dy="339" grid="1" gridSize="10" guides="1" tooltips="1" connect="1" arrows="1" fold="1" page="1" pageScale="1" pageWidth="827" pageHeight="1169" math="0" shadow="0">
      <root>
        <mxCell id="0" />
        <mxCell id="1" parent="0" />
        <mxCell id="1EImdAmeF1MEAmPHzXIi-28" style="edgeStyle=orthogonalEdgeStyle;rounded=0;orthogonalLoop=1;jettySize=auto;html=1;exitX=0;exitY=0.5;exitDx=0;exitDy=0;fontFamily=Helvetica;fontSize=12;entryX=0.5;entryY=0;entryDx=0;entryDy=0;" parent="1" source="1EImdAmeF1MEAmPHzXIi-26" target="1EImdAmeF1MEAmPHzXIi-27" edge="1">
          <mxGeometry relative="1" as="geometry">
            <mxPoint x="380" y="230" as="targetPoint" />
            <Array as="points">
              <mxPoint x="313" y="205" />
            </Array>
          </mxGeometry>
        </mxCell>
        <mxCell id="1EImdAmeF1MEAmPHzXIi-26" value="Login request by the user" style="rounded=0;whiteSpace=wrap;html=1;fontFamily=Helvetica;fontSize=12;" parent="1" vertex="1">
          <mxGeometry x="547.5" y="185" width="100" height="40" as="geometry" />
        </mxCell>
        <mxCell id="1EImdAmeF1MEAmPHzXIi-35" style="edgeStyle=orthogonalEdgeStyle;rounded=0;orthogonalLoop=1;jettySize=auto;html=1;exitX=1;exitY=0.5;exitDx=0;exitDy=0;fontFamily=Helvetica;fontSize=12;entryX=1;entryY=0.5;entryDx=0;entryDy=0;" parent="1" source="1EImdAmeF1MEAmPHzXIi-27" target="1EImdAmeF1MEAmPHzXIi-36" edge="1">
          <mxGeometry relative="1" as="geometry">
            <mxPoint x="430" y="270" as="targetPoint" />
          </mxGeometry>
        </mxCell>
        <mxCell id="1EImdAmeF1MEAmPHzXIi-27" value="Log-in" style="ellipse;whiteSpace=wrap;html=1;aspect=fixed;fontFamily=Helvetica;fontSize=12;" parent="1" vertex="1">
          <mxGeometry x="280" y="237.5" width="65" height="65" as="geometry" />
        </mxCell>
        <mxCell id="1EImdAmeF1MEAmPHzXIi-29" value="StaffID/ManagerID &lt;br&gt;and Passwd" style="text;html=1;align=center;verticalAlign=middle;resizable=0;points=[];autosize=1;strokeColor=none;fillColor=none;fontSize=12;fontFamily=Helvetica;" parent="1" vertex="1">
          <mxGeometry x="370" y="170" width="110" height="30" as="geometry" />
        </mxCell>
        <mxCell id="1EImdAmeF1MEAmPHzXIi-30" value="" style="endArrow=none;html=1;rounded=0;fontFamily=Helvetica;fontSize=12;" parent="1" edge="1">
          <mxGeometry width="50" height="50" relative="1" as="geometry">
            <mxPoint x="50" y="259.8" as="sourcePoint" />
            <mxPoint x="140" y="259.6" as="targetPoint" />
          </mxGeometry>
        </mxCell>
        <mxCell id="1EImdAmeF1MEAmPHzXIi-33" style="edgeStyle=orthogonalEdgeStyle;rounded=0;orthogonalLoop=1;jettySize=auto;html=1;entryX=0;entryY=0.5;entryDx=0;entryDy=0;fontFamily=Helvetica;fontSize=12;" parent="1" source="1EImdAmeF1MEAmPHzXIi-31" target="1EImdAmeF1MEAmPHzXIi-27" edge="1">
          <mxGeometry relative="1" as="geometry" />
        </mxCell>
        <mxCell id="1EImdAmeF1MEAmPHzXIi-31" value="User database" style="text;html=1;align=center;verticalAlign=middle;resizable=0;points=[];autosize=1;strokeColor=none;fillColor=none;fontSize=12;fontFamily=Helvetica;" parent="1" vertex="1">
          <mxGeometry x="50" y="259.6" width="90" height="20" as="geometry" />
        </mxCell>
        <mxCell id="1EImdAmeF1MEAmPHzXIi-32" value="" style="endArrow=none;html=1;rounded=0;fontFamily=Helvetica;fontSize=12;" parent="1" edge="1">
          <mxGeometry width="50" height="50" relative="1" as="geometry">
            <mxPoint x="50" y="279.80000000000007" as="sourcePoint" />
            <mxPoint x="140" y="279.6" as="targetPoint" />
          </mxGeometry>
        </mxCell>
        <mxCell id="1EImdAmeF1MEAmPHzXIi-34" value="StaffID/ManagerID &lt;br&gt;and Passwd" style="text;html=1;align=center;verticalAlign=middle;resizable=0;points=[];autosize=1;strokeColor=none;fillColor=none;fontSize=12;fontFamily=Helvetica;" parent="1" vertex="1">
          <mxGeometry x="160" y="240" width="110" height="30" as="geometry" />
        </mxCell>
        <mxCell id="J0Peu7J2mCidRUxQJSEd-2" style="edgeStyle=orthogonalEdgeStyle;rounded=0;orthogonalLoop=1;jettySize=auto;html=1;exitX=0.5;exitY=0;exitDx=0;exitDy=0;entryX=0.5;entryY=0;entryDx=0;entryDy=0;" parent="1" source="1EImdAmeF1MEAmPHzXIi-36" target="J0Peu7J2mCidRUxQJSEd-1" edge="1">
          <mxGeometry relative="1" as="geometry" />
        </mxCell>
        <mxCell id="1EImdAmeF1MEAmPHzXIi-36" value="Login status message" style="shape=document;whiteSpace=wrap;html=1;boundedLbl=1;fontFamily=Helvetica;fontSize=12;direction=west;" parent="1" vertex="1">
          <mxGeometry x="547.5" y="245" width="100" height="50" as="geometry" />
        </mxCell>
        <mxCell id="1EImdAmeF1MEAmPHzXIi-37" value="status" style="text;html=1;align=center;verticalAlign=middle;resizable=0;points=[];autosize=1;strokeColor=none;fillColor=none;fontSize=12;fontFamily=Helvetica;" parent="1" vertex="1">
          <mxGeometry x="414" y="250" width="50" height="20" as="geometry" />
        </mxCell>
        <mxCell id="ve-j7cxEB4o2DYN-b8DP-3" style="edgeStyle=orthogonalEdgeStyle;rounded=0;orthogonalLoop=1;jettySize=auto;html=1;entryX=1;entryY=0.5;entryDx=0;entryDy=0;" parent="1" source="J0Peu7J2mCidRUxQJSEd-1" target="ve-j7cxEB4o2DYN-b8DP-2" edge="1">
          <mxGeometry relative="1" as="geometry" />
        </mxCell>
        <mxCell id="J0Peu7J2mCidRUxQJSEd-1" value="approval request by the staff who has been logged in" style="rounded=0;whiteSpace=wrap;html=1;" parent="1" vertex="1">
          <mxGeometry x="512.5" y="360" width="170" height="40" as="geometry" />
        </mxCell>
        <mxCell id="ve-j7cxEB4o2DYN-b8DP-6" style="edgeStyle=orthogonalEdgeStyle;rounded=0;orthogonalLoop=1;jettySize=auto;html=1;exitX=0.5;exitY=1;exitDx=0;exitDy=0;entryX=1;entryY=0.5;entryDx=0;entryDy=0;" parent="1" source="ve-j7cxEB4o2DYN-b8DP-2" target="ve-j7cxEB4o2DYN-b8DP-5" edge="1">
          <mxGeometry relative="1" as="geometry" />
        </mxCell>
        <mxCell id="ve-j7cxEB4o2DYN-b8DP-13" style="edgeStyle=orthogonalEdgeStyle;rounded=0;orthogonalLoop=1;jettySize=auto;html=1;exitX=0;exitY=0.5;exitDx=0;exitDy=0;entryX=0.5;entryY=0;entryDx=0;entryDy=0;" parent="1" source="ve-j7cxEB4o2DYN-b8DP-2" target="ve-j7cxEB4o2DYN-b8DP-10" edge="1">
          <mxGeometry relative="1" as="geometry" />
        </mxCell>
        <mxCell id="ve-j7cxEB4o2DYN-b8DP-2" value="request approval procedure" style="ellipse;whiteSpace=wrap;html=1;aspect=fixed;" parent="1" vertex="1">
          <mxGeometry x="280" y="345" width="70" height="70" as="geometry" />
        </mxCell>
        <mxCell id="ve-j7cxEB4o2DYN-b8DP-5" value="request output" style="shape=document;whiteSpace=wrap;html=1;boundedLbl=1;direction=west;" parent="1" vertex="1">
          <mxGeometry x="540" y="420" width="102.5" height="40" as="geometry" />
        </mxCell>
        <mxCell id="ve-j7cxEB4o2DYN-b8DP-8" value="approval request" style="text;html=1;align=center;verticalAlign=middle;resizable=0;points=[];autosize=1;strokeColor=none;fillColor=none;" parent="1" vertex="1">
          <mxGeometry x="360" y="420" width="110" height="20" as="geometry" />
        </mxCell>
        <mxCell id="ve-j7cxEB4o2DYN-b8DP-7" value="message about accessing &lt;br&gt;the dataType from database" style="text;html=1;align=center;verticalAlign=middle;resizable=0;points=[];autosize=1;strokeColor=none;fillColor=none;" parent="1" vertex="1">
          <mxGeometry x="350" y="345" width="160" height="30" as="geometry" />
        </mxCell>
        <mxCell id="ve-j7cxEB4o2DYN-b8DP-21" style="edgeStyle=orthogonalEdgeStyle;rounded=0;orthogonalLoop=1;jettySize=auto;html=1;entryX=1;entryY=0.5;entryDx=0;entryDy=0;" parent="1" source="ve-j7cxEB4o2DYN-b8DP-10" target="ve-j7cxEB4o2DYN-b8DP-20" edge="1">
          <mxGeometry relative="1" as="geometry" />
        </mxCell>
        <mxCell id="ve-j7cxEB4o2DYN-b8DP-26" style="edgeStyle=orthogonalEdgeStyle;rounded=0;orthogonalLoop=1;jettySize=auto;html=1;exitX=0.5;exitY=1;exitDx=0;exitDy=0;entryX=1;entryY=0.25;entryDx=0;entryDy=0;" parent="1" source="ve-j7cxEB4o2DYN-b8DP-10" target="ve-j7cxEB4o2DYN-b8DP-25" edge="1">
          <mxGeometry relative="1" as="geometry" />
        </mxCell>
        <mxCell id="ve-j7cxEB4o2DYN-b8DP-10" value="Data Request &lt;br&gt;application" style="ellipse;whiteSpace=wrap;html=1;aspect=fixed;" parent="1" vertex="1">
          <mxGeometry x="220" y="460" width="70" height="70" as="geometry" />
        </mxCell>
        <mxCell id="ve-j7cxEB4o2DYN-b8DP-12" value="approval&amp;nbsp;&lt;br&gt;token" style="text;html=1;align=center;verticalAlign=middle;resizable=0;points=[];autosize=1;strokeColor=none;fillColor=none;" parent="1" vertex="1">
          <mxGeometry x="190" y="400" width="70" height="30" as="geometry" />
        </mxCell>
        <mxCell id="ve-j7cxEB4o2DYN-b8DP-17" style="edgeStyle=orthogonalEdgeStyle;rounded=0;orthogonalLoop=1;jettySize=auto;html=1;entryX=0;entryY=0.5;entryDx=0;entryDy=0;" parent="1" source="ve-j7cxEB4o2DYN-b8DP-15" target="ve-j7cxEB4o2DYN-b8DP-10" edge="1">
          <mxGeometry relative="1" as="geometry" />
        </mxCell>
        <mxCell id="ve-j7cxEB4o2DYN-b8DP-15" value="dataBase" style="text;html=1;align=center;verticalAlign=middle;resizable=0;points=[];autosize=1;strokeColor=none;fillColor=none;fontSize=12;fontFamily=Helvetica;" parent="1" vertex="1">
          <mxGeometry x="60" y="484.71" width="70" height="20" as="geometry" />
        </mxCell>
        <mxCell id="ve-j7cxEB4o2DYN-b8DP-16" value="" style="endArrow=none;html=1;rounded=0;fontFamily=Helvetica;fontSize=12;exitX=0.017;exitY=0.023;exitDx=0;exitDy=0;exitPerimeter=0;" parent="1" source="ve-j7cxEB4o2DYN-b8DP-15" edge="1">
          <mxGeometry width="50" height="50" relative="1" as="geometry">
            <mxPoint x="70" y="484.71" as="sourcePoint" />
            <mxPoint x="130" y="484.71" as="targetPoint" />
            <Array as="points">
              <mxPoint x="80" y="484.71" />
              <mxPoint x="100" y="484.71" />
            </Array>
          </mxGeometry>
        </mxCell>
        <mxCell id="ve-j7cxEB4o2DYN-b8DP-18" value="" style="endArrow=none;html=1;rounded=0;fontFamily=Helvetica;fontSize=12;exitX=0.017;exitY=0.023;exitDx=0;exitDy=0;exitPerimeter=0;" parent="1" edge="1">
          <mxGeometry width="50" height="50" relative="1" as="geometry">
            <mxPoint x="60.00000000000006" y="505.17" as="sourcePoint" />
            <mxPoint x="128.81" y="504.71" as="targetPoint" />
            <Array as="points">
              <mxPoint x="100" y="504.71" />
            </Array>
          </mxGeometry>
        </mxCell>
        <mxCell id="ve-j7cxEB4o2DYN-b8DP-19" value="datatype" style="text;html=1;align=center;verticalAlign=middle;resizable=0;points=[];autosize=1;strokeColor=none;fillColor=none;" parent="1" vertex="1">
          <mxGeometry x="140" y="470" width="60" height="20" as="geometry" />
        </mxCell>
        <mxCell id="ve-j7cxEB4o2DYN-b8DP-20" value="Log output display to stuffs" style="shape=document;whiteSpace=wrap;html=1;boundedLbl=1;direction=west;" parent="1" vertex="1">
          <mxGeometry x="541.09" y="469.93" width="108.91" height="49.56" as="geometry" />
        </mxCell>
        <mxCell id="ve-j7cxEB4o2DYN-b8DP-22" value="staff information and datatype" style="text;html=1;align=center;verticalAlign=middle;resizable=0;points=[];autosize=1;strokeColor=none;fillColor=none;" parent="1" vertex="1">
          <mxGeometry x="320" y="469.93" width="170" height="20" as="geometry" />
        </mxCell>
        <mxCell id="ve-j7cxEB4o2DYN-b8DP-24" value="Log of the stuff, Dangerous dataTypes" style="text;html=1;align=center;verticalAlign=middle;resizable=0;points=[];autosize=1;strokeColor=none;fillColor=none;" parent="1" vertex="1">
          <mxGeometry x="270" y="564" width="220" height="20" as="geometry" />
        </mxCell>
        <mxCell id="ve-j7cxEB4o2DYN-b8DP-25" value="warningMessage to the stuff and the manager of his/her group" style="shape=document;whiteSpace=wrap;html=1;boundedLbl=1;direction=west;" parent="1" vertex="1">
          <mxGeometry x="523.75" y="540" width="147.5" height="70" as="geometry" />
        </mxCell>
      </root>
    </mxGraphModel>
  </diagram>
</mxfile>
